# xmcd
#
# Track frame offsets:
#	183
#	13003
#	26863
#	39083
#	47423
#	72955
#	86928
#	94353
#	108643
#	114780
#	123483
#	136625
#	144828
#	156238
#	165078
#
# Disc length: 2475 seconds
#
# Revision: 1
# Processed by: cddbd v1.5.2PL0 Copyright (c) Steve Scherf et al.
# Submitted via: audiograbber 1.83.01
#
DISCID=b909a90f
DTITLE=Blind Willie McTell - Nobody Sings The Blues Like (vol 1)
DYEAR=1900
DGENRE=
TTITLE0=Chainey
TTITLE1=Murderer's Home Blues
TTITLE2=Kill It Kid Rag
TTITLE3=I Got To Cross The River Of Jordan
TTITLE4=Monologue
TTITLE5=Old Time Religion, Amen
TTITLE6=Will Fox
TTITLE7=Dying Crapshooter's Blues
TTITLE8=Amazing Grace
TTITLE9=Monologue
TTITLE10=Medley
TTITLE11=King Edward's Blues
TTITLE12=Delia
TTITLE13=Boll Weevil
TTITLE14=I Got To Cross The River Of Jordan
EXTD=
EXTT0=
EXTT1=
EXTT2=
EXTT3=
EXTT4=
EXTT5=
EXTT6=
EXTT7=
EXTT8=
EXTT9=
EXTT10=
EXTT11=
EXTT12=
EXTT13=
EXTT14=
PLAYORDER=
